<svg enable-background="new 0 0 64 64" height="512" viewBox="0 0 64 64" width="512" xmlns="http://www.w3.org/2000/svg"><g id="Layer_14"><path d="m58.84 37.36h-7.48c-.521-8.77-7.83-15.75-16.73-15.75-8.04 0-14.82 5.62-16.4 13.41-6.78-4.35-12.64-5.59-13.07-5.68-.55-.11-1.07.24-1.18.78s.24 1.07.78 1.18c.18.04 17.91 3.83 27.14 21.58.16.31.47.5.79.53.03.01.06.01.1.01h19.49c.55 0 1-.45 1-1s-.45-1-1-1h-18.89c-1.07-2.01-2.24-3.83-3.47-5.5h26.11c.55 0 1-.45 1-1s-.45-1-1-1h-27.7c-1.41-1.7-2.9-3.22-4.4-4.56h34.91c.55 0 1-.45 1-1s-.45-1-1-1zm-37.31 0c-.5-.39-.99-.76-1.49-1.11 1.02-7.25 7.2-12.64 14.59-12.64 7.8 0 14.21 6.08 14.72 13.75z"/><path d="m34.633 19.657c.553 0 1-.448 1-1v-7.074c0-.552-.447-1-1-1s-1 .448-1 1v7.074c0 .552.447 1 1 1z"/><path d="m20.325 24.773c.197.207.46.311.725.311.248 0 .496-.091.689-.275.4-.381.416-1.014.035-1.414l-4.876-5.125c-.38-.399-1.013-.416-1.414-.035-.4.381-.416 1.014-.035 1.414z"/><path d="m26.383 20.437c.156.391.532.629.929.629.124 0 .249-.023.371-.072.513-.206.762-.787.557-1.3l-2.627-6.567c-.205-.512-.784-.76-1.3-.557-.513.206-.762.787-.557 1.3z"/><path d="m41.581 20.993c.122.049.248.072.372.072.396 0 .771-.238.929-.629l2.629-6.567c.205-.513-.044-1.095-.557-1.3-.514-.206-1.095.043-1.301.557l-2.629 6.567c-.205.513.044 1.095.557 1.3z"/><path d="m48.216 25.085c.265 0 .528-.104.725-.311l4.875-5.127c.381-.4.364-1.033-.035-1.414-.401-.38-1.034-.365-1.414.036l-4.875 5.127c-.381.4-.364 1.033.035 1.414.194.184.441.275.689.275z"/><path d="m51.683 30.665c.167.37.531.589.912.589.138 0 .277-.029.411-.089l6.447-2.914c.503-.228.727-.82.499-1.323s-.82-.728-1.323-.5l-6.447 2.914c-.503.228-.727.82-.499 1.323z"/><path d="m9.813 28.251 6.446 2.912c.134.061.273.089.411.089.381 0 .745-.219.912-.589.228-.503.004-1.096-.5-1.323l-6.446-2.912c-.504-.228-1.096-.003-1.323.5-.227.504-.003 1.096.5 1.323z"/></g></svg>