<svg enable-background="new 0 0 64 64" height="512" viewBox="0 0 64 64" width="512" xmlns="http://www.w3.org/2000/svg"><g id="Layer_5"><path d="m32 14.191c-9.819 0-17.809 7.989-17.809 17.809s7.99 17.809 17.809 17.809 17.809-7.989 17.809-17.809-7.99-17.809-17.809-17.809zm0 33.618c-8.717 0-15.809-7.092-15.809-15.809s7.092-15.809 15.809-15.809 15.809 7.092 15.809 15.809-7.092 15.809-15.809 15.809z"/><path d="m32 11.967c.553 0 1-.448 1-1v-7.55c0-.552-.447-1-1-1s-1 .448-1 1v7.55c0 .552.447 1 1 1z"/><path d="m32 52.03c-.55 0-1 .45-1 1v7.55c0 .56.45 1 1 1s1-.44 1-1v-7.55c0-.55-.45-1-1-1z"/><path d="m60.582 31h-7.551c-.553 0-1 .448-1 1s.447 1 1 1h7.551c.553 0 1-.448 1-1s-.447-1-1-1z"/><path d="m11.969 32c0-.552-.447-1-1-1h-7.551c-.553 0-1 .448-1 1s.447 1 1 1h7.551c.552 0 1-.448 1-1z"/><path d="m16.779 17.448c.196.207.46.311.725.311.248 0 .496-.091.689-.275.4-.381.416-1.014.035-1.414l-5.203-5.47c-.38-.4-1.015-.416-1.414-.035-.4.381-.416 1.014-.035 1.414z"/><path d="m47.221 46.551c-.38-.401-1.015-.416-1.414-.036-.4.381-.416 1.014-.035 1.414l5.203 5.471c.196.207.46.311.725.311.248 0 .496-.091.689-.275.4-.381.416-1.014.035-1.414z"/><path d="m23.259 12.841c.157.391.532.629.929.629.124 0 .25-.023.371-.072.514-.205.763-.787.558-1.3l-2.805-7.008c-.206-.514-.791-.761-1.3-.557-.514.205-.763.787-.558 1.3z"/><path d="m40.741 51.158c-.205-.514-.792-.762-1.3-.557-.513.205-.763.787-.558 1.3l2.805 7.009c.156.391.532.629.929.629.124 0 .25-.023.371-.072.513-.205.763-.787.558-1.3z"/><path d="m39.441 13.398c.121.049.247.072.371.072.396 0 .771-.238.929-.629l2.805-7.008c.205-.513-.044-1.095-.558-1.3-.509-.205-1.094.043-1.3.557l-2.805 7.008c-.204.513.045 1.095.558 1.3z"/><path d="m24.56 50.6c-.51-.2-1.1.05-1.3.56l-2.81 7.01c-.2.51.05 1.09.56 1.3.12.05.25.07.37.07.4 0 .78-.24.93-.63l2.811-7.01c.199-.51-.051-1.09-.561-1.3z"/><path d="m16.78 46.55-5.2 5.47c-.38.4-.37 1.03.03 1.42.189.18.439.27.689.27.26 0 .53-.1.73-.31l5.2-5.47c.38-.4.359-1.03-.04-1.41-.389-.38-1.029-.37-1.409.03z"/><path d="m46.496 17.761c.265 0 .528-.104.725-.311l5.203-5.472c.381-.4.364-1.033-.035-1.414-.401-.38-1.034-.365-1.414.036l-5.203 5.472c-.381.4-.364 1.033.035 1.414.194.183.441.275.689.275z"/><path d="m13.74 40.25c-.23-.51-.82-.73-1.32-.5l-6.88 3.1c-.5.23-.73.82-.5 1.33.17.37.53.59.91.59.14 0 .28-.03.41-.09l6.88-3.11c.51-.23.73-.82.5-1.32z"/><path d="m50.257 23.754c.167.37.531.589.912.589.138 0 .277-.029.411-.089l6.881-3.109c.503-.227.727-.819.499-1.323s-.819-.728-1.323-.5l-6.881 3.109c-.503.228-.727.82-.499 1.323z"/><path d="m5.54 21.145 6.88 3.107c.133.06.272.089.41.089.381 0 .745-.219.912-.589.228-.503.004-1.096-.5-1.323l-6.88-3.107c-.501-.228-1.096-.003-1.322.5-.227.504-.004 1.096.5 1.323z"/><path d="m58.461 42.855-6.881-3.109c-.504-.228-1.096-.004-1.323.5-.228.503-.004 1.096.499 1.323l6.881 3.109c.134.061.273.089.411.089.381 0 .745-.219.912-.589.228-.504.004-1.096-.499-1.323z"/></g></svg>