<svg enable-background="new 0 0 64 64" height="512" viewBox="0 0 64 64" width="512" xmlns="http://www.w3.org/2000/svg"><g id="Layer_6"><path d="m31.807 22.237c-.553 0-1-.448-1-1v-7.55c0-.552.447-1 1-1s1 .448 1 1v7.55c0 .553-.448 1-1 1z"/><path d="m60.78 41.27h-11.19c-.52-9.35-8.29-16.81-17.78-16.81-9.489 0-17.26 7.46-17.779 16.81h-10.811c-.55 0-1 .45-1 1s.45 1 1 1h57.56c.55 0 1-.45 1-1s-.45-1-1-1zm-44.75 0c.52-8.26 7.399-14.81 15.779-14.81 8.37 0 15.261 6.55 15.78 14.81z"/><path d="m17.311 28.029c-.265 0-.528-.104-.725-.311l-5.203-5.47c-.381-.4-.365-1.033.035-1.414.399-.38 1.034-.365 1.414.035l5.203 5.47c.381.4.365 1.033-.035 1.414-.193.185-.441.276-.689.276z"/><path d="m46.303 28.031c-.248 0-.495-.091-.689-.275-.399-.38-.416-1.014-.035-1.414l5.203-5.472c.38-.401 1.013-.416 1.414-.036.399.38.416 1.014.035 1.414l-5.203 5.472c-.197.207-.461.311-.725.311z"/><path d="m49.584 51.313h-35.168c-.553 0-1-.448-1-1s.447-1 1-1h35.168c.553 0 1 .448 1 1s-.447 1-1 1z"/></g></svg>