<svg enable-background="new 0 0 64 64" height="512" viewBox="0 0 64 64" width="512" xmlns="http://www.w3.org/2000/svg"><g id="Layer_7"><path d="m50.323 40.868c.072-.625.121-1.252.121-1.875 0-8.928-7.264-16.192-16.192-16.192-7.37 0-13.754 4.927-15.638 12.013-1.469 1.469-2.565 3.24-3.16 5.21-.639-.09-1.297-.152-1.988-.152-5.909 0-10.715 3.489-10.715 7.778s4.807 7.778 10.715 7.778c2.646 0 5.123-.684 7.071-1.928 2.607 1.823 5.838 2.832 9.196 2.832 3.158 0 6.245-.905 8.781-2.543 1.863 1.057 4.171 1.639 6.583 1.639 5.909 0 10.715-3.489 10.715-7.778 0-2.91-2.218-5.449-5.489-6.782zm-16.072-16.067c7.826 0 14.192 6.367 14.192 14.192 0 .417-.021.838-.058 1.258-1.037-.244-2.141-.378-3.289-.378-.373 0-.747.018-1.12.047-1.737-5.573-7.568-9.536-14.244-9.536-2.974 0-5.767.787-8.113 2.141 2.379-4.666 7.198-7.724 12.632-7.724zm10.845 28.628c-2.278 0-4.43-.587-6.059-1.653-.351-.229-.791-.208-1.116.018-.004.003-.007.001-.012.005-2.295 1.634-5.2 2.535-8.177 2.535-3.174 0-6.217-1.007-8.568-2.835-.346-.269-.808-.265-1.156-.038-.019.009-.031.007-.056.025-1.658 1.235-4.022 1.944-6.487 1.944-4.806 0-8.715-2.592-8.715-5.778s3.91-5.778 8.715-5.778c.892 0 1.734.089 2.503.257 1.125.245 1.194-.766 1.194-.767 1.117-5.203 6.404-8.979 12.57-8.979 6.091 0 11.364 3.717 12.537 8.839.016.071.039.117.066.147.168.412.584.682 1.045.62.567-.078 1.145-.118 1.716-.118 4.806 0 8.715 2.592 8.715 5.778s-3.909 5.778-8.715 5.778z"/><path d="m34.251 20.982c.552 0 1-.448 1-1v-6.823c0-.552-.448-1-1-1s-1 .448-1 1v6.823c0 .552.448 1 1 1z"/><path d="m60.082 37.991h-6.824c-.552 0-1 .448-1 1s.448 1 1 1h6.824c.552 0 1-.448 1-1s-.448-1-1-1z"/><path d="m20.426 25.906c.197.207.46.311.725.311.248 0 .496-.091.689-.275.4-.381.416-1.014.035-1.414l-4.702-4.943c-.381-.399-1.013-.415-1.414-.035-.4.381-.416 1.014-.035 1.414z"/><path d="m26.263 21.712c.156.391.532.629.929.629.124 0 .249-.023.371-.072.513-.205.762-.787.557-1.3l-2.535-6.333c-.204-.513-.785-.762-1.3-.557-.513.205-.762.787-.557 1.3z"/><path d="m40.94 22.269c.122.049.248.072.371.072.397 0 .772-.238.929-.629l2.535-6.333c.206-.513-.044-1.095-.557-1.3-.516-.207-1.095.043-1.3.557l-2.535 6.333c-.205.512.044 1.094.557 1.3z"/><path d="m47.352 26.218c.264 0 .528-.104.725-.311l4.702-4.945c.381-.4.365-1.033-.036-1.414-.399-.38-1.034-.365-1.414.036l-4.702 4.945c-.381.4-.365 1.033.036 1.414.193.184.441.275.689.275z"/><path d="m50.663 31.579c.167.37.531.589.912.589.138 0 .278-.029.411-.089l6.218-2.81c.503-.228.727-.82.5-1.323s-.821-.728-1.323-.5l-6.218 2.81c-.504.227-.727.82-.5 1.323z"/><path d="m10.298 29.268 6.218 2.808c.134.061.273.089.411.089.381 0 .745-.219.912-.589.228-.503.004-1.096-.5-1.323l-6.218-2.808c-.505-.229-1.095-.004-1.323.5s-.003 1.096.5 1.323z"/></g></svg>